<mxfile host="Electron" modified="2024-06-24T08:25:39.236Z" agent="Mozilla/5.0 (X11; Linux x86_64) AppleWebKit/537.36 (KHTML, like Gecko) draw.io/24.0.4 Chrome/120.0.6099.291 Electron/28.3.1 Safari/537.36" etag="c8FHAelZI1VUwA0EsLpA" version="24.0.4" type="device">
  <diagram name="Page-1" id="pydou4fONXfi1h5qixOU">
    <mxGraphModel dx="1041" dy="533" grid="1" gridSize="10" guides="1" tooltips="1" connect="1" arrows="1" fold="1" page="1" pageScale="1" pageWidth="850" pageHeight="1100" math="0" shadow="0">
      <root>
        <mxCell id="0" />
        <mxCell id="1" parent="0" />
        <mxCell id="H2syNYq4JTmCO5q3IFAi-5" style="edgeStyle=orthogonalEdgeStyle;rounded=0;orthogonalLoop=1;jettySize=auto;html=1;exitX=1;exitY=0.5;exitDx=0;exitDy=0;entryX=0;entryY=0.5;entryDx=0;entryDy=0;" edge="1" parent="1" source="H2syNYq4JTmCO5q3IFAi-2" target="H2syNYq4JTmCO5q3IFAi-4">
          <mxGeometry relative="1" as="geometry" />
        </mxCell>
        <mxCell id="H2syNYq4JTmCO5q3IFAi-2" value="Client" style="ellipse;whiteSpace=wrap;html=1;aspect=fixed;" vertex="1" parent="1">
          <mxGeometry x="50" y="130" width="80" height="80" as="geometry" />
        </mxCell>
        <mxCell id="H2syNYq4JTmCO5q3IFAi-10" style="edgeStyle=orthogonalEdgeStyle;rounded=0;orthogonalLoop=1;jettySize=auto;html=1;exitX=1;exitY=0.5;exitDx=0;exitDy=0;entryX=0;entryY=0.5;entryDx=0;entryDy=0;" edge="1" parent="1" source="H2syNYq4JTmCO5q3IFAi-4" target="H2syNYq4JTmCO5q3IFAi-8">
          <mxGeometry relative="1" as="geometry" />
        </mxCell>
        <mxCell id="H2syNYq4JTmCO5q3IFAi-18" style="edgeStyle=orthogonalEdgeStyle;rounded=0;orthogonalLoop=1;jettySize=auto;html=1;exitX=0.5;exitY=1;exitDx=0;exitDy=0;entryX=0.5;entryY=0;entryDx=0;entryDy=0;" edge="1" parent="1" source="H2syNYq4JTmCO5q3IFAi-4" target="H2syNYq4JTmCO5q3IFAi-7">
          <mxGeometry relative="1" as="geometry">
            <Array as="points">
              <mxPoint x="255" y="280" />
              <mxPoint x="525" y="280" />
            </Array>
          </mxGeometry>
        </mxCell>
        <mxCell id="H2syNYq4JTmCO5q3IFAi-19" style="edgeStyle=orthogonalEdgeStyle;rounded=0;orthogonalLoop=1;jettySize=auto;html=1;exitX=0.5;exitY=1;exitDx=0;exitDy=0;entryX=0.5;entryY=0;entryDx=0;entryDy=0;" edge="1" parent="1" source="H2syNYq4JTmCO5q3IFAi-4" target="H2syNYq4JTmCO5q3IFAi-6">
          <mxGeometry relative="1" as="geometry">
            <Array as="points">
              <mxPoint x="255" y="280" />
              <mxPoint x="355" y="280" />
            </Array>
          </mxGeometry>
        </mxCell>
        <mxCell id="H2syNYq4JTmCO5q3IFAi-4" value="SpringBoot&lt;div&gt;Service&lt;/div&gt;" style="shape=hexagon;perimeter=hexagonPerimeter2;whiteSpace=wrap;html=1;fixedSize=1;" vertex="1" parent="1">
          <mxGeometry x="210" y="130" width="90" height="80" as="geometry" />
        </mxCell>
        <mxCell id="H2syNYq4JTmCO5q3IFAi-6" value="ElasticSearch&lt;div&gt;Service&lt;/div&gt;" style="shape=hexagon;perimeter=hexagonPerimeter2;whiteSpace=wrap;html=1;fixedSize=1;" vertex="1" parent="1">
          <mxGeometry x="310" y="300" width="90" height="80" as="geometry" />
        </mxCell>
        <mxCell id="H2syNYq4JTmCO5q3IFAi-7" value="MongoDB&lt;div&gt;Service&lt;/div&gt;" style="shape=hexagon;perimeter=hexagonPerimeter2;whiteSpace=wrap;html=1;fixedSize=1;" vertex="1" parent="1">
          <mxGeometry x="480" y="300" width="90" height="80" as="geometry" />
        </mxCell>
        <mxCell id="H2syNYq4JTmCO5q3IFAi-22" style="edgeStyle=orthogonalEdgeStyle;rounded=0;orthogonalLoop=1;jettySize=auto;html=1;exitX=1;exitY=0.5;exitDx=0;exitDy=0;entryX=0;entryY=0.5;entryDx=0;entryDy=0;" edge="1" parent="1" source="H2syNYq4JTmCO5q3IFAi-8" target="H2syNYq4JTmCO5q3IFAi-15">
          <mxGeometry relative="1" as="geometry" />
        </mxCell>
        <mxCell id="H2syNYq4JTmCO5q3IFAi-8" value="RabbitMQ&lt;div&gt;Service&lt;/div&gt;" style="shape=hexagon;perimeter=hexagonPerimeter2;whiteSpace=wrap;html=1;fixedSize=1;" vertex="1" parent="1">
          <mxGeometry x="390" y="130" width="90" height="80" as="geometry" />
        </mxCell>
        <mxCell id="H2syNYq4JTmCO5q3IFAi-9" value="" style="verticalLabelPosition=bottom;html=1;verticalAlign=top;align=center;strokeColor=none;fillColor=#aaaaaa;shape=mxgraph.azure.queue_generic;pointerEvents=1;" vertex="1" parent="1">
          <mxGeometry x="410" y="190" width="50" height="10" as="geometry" />
        </mxCell>
        <mxCell id="H2syNYq4JTmCO5q3IFAi-11" value="Worker 1" style="shape=hexagon;perimeter=hexagonPerimeter2;whiteSpace=wrap;html=1;fixedSize=1;" vertex="1" parent="1">
          <mxGeometry x="600" y="130" width="90" height="80" as="geometry" />
        </mxCell>
        <mxCell id="H2syNYq4JTmCO5q3IFAi-12" value="Worker n" style="shape=hexagon;perimeter=hexagonPerimeter2;whiteSpace=wrap;html=1;fixedSize=1;" vertex="1" parent="1">
          <mxGeometry x="820" y="130" width="90" height="80" as="geometry" />
        </mxCell>
        <mxCell id="H2syNYq4JTmCO5q3IFAi-13" value="" style="endArrow=none;dashed=1;html=1;rounded=0;" edge="1" parent="1">
          <mxGeometry width="50" height="50" relative="1" as="geometry">
            <mxPoint x="720" y="170" as="sourcePoint" />
            <mxPoint x="790" y="170" as="targetPoint" />
          </mxGeometry>
        </mxCell>
        <mxCell id="H2syNYq4JTmCO5q3IFAi-20" style="edgeStyle=orthogonalEdgeStyle;rounded=0;orthogonalLoop=1;jettySize=auto;html=1;exitX=0.5;exitY=1;exitDx=0;exitDy=0;entryX=0.5;entryY=1;entryDx=0;entryDy=0;" edge="1" parent="1" source="H2syNYq4JTmCO5q3IFAi-15" target="H2syNYq4JTmCO5q3IFAi-7">
          <mxGeometry relative="1" as="geometry" />
        </mxCell>
        <mxCell id="H2syNYq4JTmCO5q3IFAi-21" style="edgeStyle=orthogonalEdgeStyle;rounded=0;orthogonalLoop=1;jettySize=auto;html=1;exitX=0.5;exitY=1;exitDx=0;exitDy=0;entryX=0.5;entryY=1;entryDx=0;entryDy=0;" edge="1" parent="1" source="H2syNYq4JTmCO5q3IFAi-15" target="H2syNYq4JTmCO5q3IFAi-6">
          <mxGeometry relative="1" as="geometry" />
        </mxCell>
        <mxCell id="H2syNYq4JTmCO5q3IFAi-15" value="" style="swimlane;startSize=0;" vertex="1" parent="1">
          <mxGeometry x="590" y="110" width="330" height="120" as="geometry">
            <mxRectangle x="590" y="60" width="50" height="40" as="alternateBounds" />
          </mxGeometry>
        </mxCell>
        <mxCell id="H2syNYq4JTmCO5q3IFAi-24" value="" style="strokeWidth=2;html=1;shape=mxgraph.flowchart.database;whiteSpace=wrap;" vertex="1" parent="1">
          <mxGeometry x="517.5" y="360" width="15" height="10" as="geometry" />
        </mxCell>
        <mxCell id="H2syNYq4JTmCO5q3IFAi-25" value="" style="html=1;verticalLabelPosition=bottom;align=center;labelBackgroundColor=#ffffff;verticalAlign=top;strokeWidth=2;strokeColor=#0080F0;shadow=0;dashed=0;shape=mxgraph.ios7.icons.looking_glass;" vertex="1" parent="1">
          <mxGeometry x="350" y="360" width="10" height="10" as="geometry" />
        </mxCell>
      </root>
    </mxGraphModel>
  </diagram>
</mxfile>
